# xmcd
#
# Track frame offsets: 
#        150
#        13439
#        24534
#        35736
#        44678
#        55856
#        66377
#        77658
#        89251
#        101172
#        111254
#        124741
#        139574
#        149715
#        162034
#        172024
#        183370
#        192496
#        205600
#        216463
#        226803
#        238983
#        249054
#        260713
#        273118
#
# Disc length: 3987 seconds
#
# Revision: 1
# Processed by: cddbd v1.5.2PL0 Copyright (c) Steve Scherf et al.
# Submitted via: ExactAudioCopyFreeDBPlugin 1.0
#
DISCID=790f9119
DTITLE=Various Artist - Keeping the Faith:  40 Years of Northern Soul
DTITLE=Various Artist - Memories and Souvenirs [box set]
DYEAR=2007
DGENRE=Soul
TTITLE0=The Precisions - Such Misery
TTITLE1=Donnie Burdick - Candle
TTITLE2=Royal Five - Don't Stop
TTITLE3=Eddie Daye and The 4 Bars - Guess Who Loves You
TTITLE4=Terri Bryant - Genie
TTITLE5=Mel Britt - She'll Come Running Back
TTITLE6=Felton Burks - I'll Always Love You
TTITLE7=Jock Mitchell - Not a Chance in a Million
TTITLE8=Jack Montgomery - Dearly Beloved
TTITLE9=Dave Hamilton Orchestra - Who Are You Trying to Fool?
TTITLE10=The Group feat. Cecil Washington - I Don't Like to Lose
TTITLE11=Ray Gant and The Arabian Knights - I Need a True Love
TTITLE12=Johnny Bragg - They're Talking About Me
TTITLE13=Otis Smith - Let Her Go
TTITLE14=The Fidels - I'm Giving You Notice Baby
TTITLE15=The Jades - I'm Where it's At
TTITLE16=Robby Lawson - Burning Sensation
TTITLE17=Ronnie Walker - Trouble
TTITLE18=The Whispers - You've Got a Man on Your Hands
TTITLE19=Willie and The Mighty Magnificents - Check it Baby
TTITLE20=Edwin Starr - Has it Happened to You Yet
TTITLE21=Andrea Henry - I Need You Like a Baby
TTITLE22=Eddie Kool - Where There's A Will There's A Way
TTITLE23=Glen Miller - Where is the Love
TTITLE24=Johnnie Taylor - What About My Love
EXTD=4 x CD Box Set\nKeeping The Faith 40 Years Of Northern Soul\nMemo
EXTD=ries and Souvenirs
EXTT0=
EXTT1=
EXTT2=
EXTT3=
EXTT4=
EXTT5=
EXTT6=
EXTT7=
EXTT8=
EXTT9=
EXTT10=
EXTT11=
EXTT12=
EXTT13=
EXTT14=
EXTT15=
EXTT16=
EXTT17=
EXTT18=
EXTT19=
EXTT20=
EXTT21=
EXTT22=
EXTT23=
EXTT24=
PLAYORDER=
